<svg viewBox="0 0 512 512" xmlns="http://www.w3.org/2000/svg">
  <!-- Receipt/Paper in back -->
  <rect x="195" y="80" width="230" height="280" fill="#E8DCC8" stroke="#2C3E50" stroke-width="8" rx="5"/>
  
  <!-- Receipt lines -->
  <line x1="220" y1="110" x2="290" y2="110" stroke="#2C3E50" stroke-width="6"/>
  <line x1="305" y1="110" x2="390" y2="110" stroke="#2C3E50" stroke-width="6"/>
  
  <line x1="220" y1="145" x2="390" y2="145" stroke="#2C3E50" stroke-width="6"/>
  <line x1="220" y1="175" x2="390" y2="175" stroke="#2C3E50" stroke-width="6"/>
  <line x1="220" y1="205" x2="390" y2="205" stroke="#2C3E50" stroke-width="6"/>
  <line x1="220" y1="235" x2="390" y2="235" stroke="#2C3E50" stroke-width="6"/>
  <line x1="220" y1="265" x2="350" y2="265" stroke="#2C3E50" stroke-width="6"/>
  
  <!-- Page curl corner -->
  <path d="M 370 330 L 395 330 L 395 355 Z" fill="#BFB09A"/>
  <path d="M 370 330 L 395 330 L 395 355 Z" fill="none" stroke="#2C3E50" stroke-width="6" stroke-linejoin="round"/>
  
  <!-- Second paper (shadow) -->
  <rect x="220" y="100" width="210" height="260" fill="#D4C5AD" stroke="#2C3E50" stroke-width="8" rx="5"/>
  
  <!-- Calculator -->
  <rect x="80" y="160" width="180" height="280" fill="#E67E60" stroke="#2C3E50" stroke-width="8" rx="10"/>
  
  <!-- Receipt stub on calculator -->
  <rect x="100" y="80" width="60" height="110" fill="#F5A623" stroke="#2C3E50" stroke-width="8" rx="3"/>
  <line x1="120" y1="105" x2="140" y2="105" stroke="#2C3E50" stroke-width="6"/>
  <line x1="120" y1="125" x2="140" y2="125" stroke="#2C3E50" stroke-width="6"/>
  <line x1="120" y1="145" x2="140" y2="145" stroke="#2C3E50" stroke-width="6"/>
  
  <!-- Calculator display -->
  <rect x="100" y="195" width="140" height="45" fill="#FFB86C" stroke="#2C3E50" stroke-width="6" rx="3"/>
  
  <!-- Display dots -->
  <circle cx="120" cy="217.5" r="4" fill="#2C3E50"/>
  <circle cx="140" cy="217.5" r="4" fill="#2C3E50"/>
  <circle cx="160" cy="217.5" r="4" fill="#2C3E50"/>
  
  <!-- Calculator buttons (3x3 grid) -->
  <rect x="100" y="260" width="35" height="35" fill="#FFD166" stroke="#2C3E50" stroke-width="6" rx="3"/>
  <rect x="150" y="260" width="35" height="35" fill="#FFD166" stroke="#2C3E50" stroke-width="6" rx="3"/>
  <rect x="200" y="260" width="35" height="35" fill="#FFD166" stroke="#2C3E50" stroke-width="6" rx="3"/>
  
  <rect x="100" y="310" width="35" height="35" fill="#FFD166" stroke="#2C3E50" stroke-width="6" rx="3"/>
  <rect x="150" y="310" width="35" height="35" fill="#FFD166" stroke="#2C3E50" stroke-width="6" rx="3"/>
  <rect x="200" y="310" width="35" height="35" fill="#FFD166" stroke="#2C3E50" stroke-width="6" rx="3"/>
  
  <rect x="100" y="360" width="35" height="35" fill="#FFD166" stroke="#2C3E50" stroke-width="6" rx="3"/>
  <rect x="150" y="360" width="35" height="35" fill="#FFD166" stroke="#2C3E50" stroke-width="6" rx="3"/>
  <rect x="200" y="360" width="35" height="35" fill="#FFD166" stroke="#2C3E50" stroke-width="6" rx="3"/>
  
  <!-- Pen -->
  <rect x="265" y="365" width="165" height="35" fill="#8B7355" stroke="#2C3E50" stroke-width="8" rx="17.5"/>
  <polygon points="265,382.5 240,382.5 250,365 250,400" fill="#6B5640" stroke="#2C3E50" stroke-width="8" stroke-linejoin="round"/>
  
  <!-- Pen clip -->
  <ellipse cx="285" cy="382.5" rx="8" ry="12" fill="#2C3E50"/>
</svg>